<?xml version="1.0" encoding="UTF-8" standalone="no"?>
<!DOCTYPE svg PUBLIC "-//W3C//DTD SVG 1.1//EN" "http://www.w3.org/Graphics/SVG/1.1/DTD/svg11.dtd">
<svg version="1.1" xmlns="http://www.w3.org/2000/svg" xmlns:xlink="http://www.w3.org/1999/xlink" preserveAspectRatio="xMidYMid meet" viewBox="0 0 640 640" width="640" height="640"><defs><path d="M466.15 336.05C466.15 416.83 400.56 482.42 319.77 482.42C238.99 482.42 173.4 416.83 173.4 336.05C173.4 255.26 238.99 189.67 319.77 189.67C400.56 189.67 466.15 255.26 466.15 336.05Z" id="c4Zgh874qf"></path><path d="M242.99 469.93L396.56 469.93C396.56 507.16 396.56 530.43 396.56 539.73C396.56 559.39 380.62 575.33 360.96 575.33C337.37 575.33 307.28 575.33 284.95 575.33C261.78 575.33 242.99 556.54 242.99 533.36C242.99 524.91 242.99 503.76 242.99 469.93Z" id="bOK3naR3H"></path><path d="" id="e96j5WMEk"></path><path d="M67.9 229.13C71.04 221.79 79.54 218.39 86.87 221.54C97.51 226.09 117.3 234.57 128.23 239.25C134.77 242.06 137.8 249.63 135 256.18C133.37 259.97 133.7 259.2 132.11 262.92C129.22 269.66 121.41 272.79 114.66 269.9C103.81 265.25 82.62 256.17 71.56 251.43C65.39 248.79 62.53 241.65 65.17 235.48C66.86 231.55 66.4 232.63 67.9 229.13Z" id="gkFUOzmqu"></path><path d="M175.25 97.17C181.17 92.61 189.65 93.72 194.21 99.64C201.04 108.53 214.02 125.4 221.04 134.52C225.1 139.8 224.11 147.37 218.83 151.43C215.77 153.78 216.39 153.31 213.39 155.61C207.95 159.8 200.15 158.78 195.96 153.34C188.99 144.28 175.14 126.27 168.04 117.04C164.22 112.07 165.15 104.93 170.12 101.11C173.29 98.67 172.42 99.34 175.25 97.17Z" id="a15Szotend"></path><path d="M540.3 121.98C545.98 126.82 546.67 135.35 541.83 141.03C532.7 151.75 513.33 174.5 504.02 185.43C499.7 190.5 492.09 191.11 487.02 186.8C484.09 184.29 484.68 184.8 481.8 182.35C476.57 177.9 475.94 170.05 480.39 164.83C489.66 153.94 509.95 130.11 519.36 119.07C523.43 114.29 530.6 113.72 535.38 117.78C538.42 120.38 537.59 119.66 540.3 121.98Z" id="aGn6GmHlF"></path><path d="M363.95 65.61C371.35 66.58 376.57 73.36 375.6 80.77C374.14 91.88 371.38 112.99 369.89 124.4C369.02 131 362.97 135.66 356.37 134.79C352.54 134.29 353.32 134.39 349.56 133.9C342.76 133.01 337.96 126.77 338.85 119.96C340.33 108.63 343.28 86.11 344.79 74.56C345.61 68.34 351.31 63.95 357.54 64.77C361.5 65.29 360.41 65.14 363.95 65.61Z" id="n3PqqnTQGh"></path></defs><g><g><g><g><use xlink:href="#c4Zgh874qf" opacity="1" fill-opacity="0" stroke="#000000" stroke-width="33" stroke-opacity="1"></use></g></g><g><use xlink:href="#bOK3naR3H" opacity="1" fill="#000000" fill-opacity="1"></use></g><g><g><use xlink:href="#e96j5WMEk" opacity="1" fill-opacity="0" stroke="#000000" stroke-width="23" stroke-opacity="1"></use></g></g><g><use xlink:href="#gkFUOzmqu" opacity="1" fill="#000000" fill-opacity="1"></use></g><g><use xlink:href="#a15Szotend" opacity="1" fill="#000000" fill-opacity="1"></use></g><g><use xlink:href="#aGn6GmHlF" opacity="1" fill="#000000" fill-opacity="1"></use></g><g><use xlink:href="#n3PqqnTQGh" opacity="1" fill="#000000" fill-opacity="1"></use></g></g></g></svg>